<svg width="306" height="80" viewBox="0 0 306 80" fill="none" xmlns="http://www.w3.org/2000/svg">
<path d="M46.116 78.408L15.228 38.664L45.144 2.15996H66.096L32.4 41.796V34.884L67.176 78.408H46.116ZM6.25849e-06 78.408V2.15996H16.956V78.408H6.25849e-06ZM92.0253 79.488C87.2013 79.488 82.8813 78.3 79.0653 75.924C75.3213 73.548 72.3333 70.308 70.1013 66.204C67.9413 62.1 66.8613 57.42 66.8613 52.164C66.8613 46.908 67.9413 42.228 70.1013 38.124C72.3333 34.02 75.3213 30.78 79.0653 28.404C82.8813 26.028 87.2013 24.84 92.0253 24.84C95.5533 24.84 98.7213 25.524 101.529 26.892C104.409 28.26 106.749 30.168 108.549 32.616C110.349 34.992 111.357 37.728 111.573 40.824V63.504C111.357 66.6 110.349 69.372 108.549 71.82C106.821 74.196 104.517 76.068 101.637 77.436C98.7573 78.804 95.5533 79.488 92.0253 79.488ZM95.3733 64.584C98.9013 64.584 101.745 63.432 103.905 61.128C106.065 58.752 107.145 55.764 107.145 52.164C107.145 49.716 106.641 47.556 105.633 45.684C104.697 43.812 103.329 42.372 101.529 41.364C99.8013 40.284 97.7853 39.744 95.4813 39.744C93.1773 39.744 91.1253 40.284 89.3253 41.364C87.5973 42.372 86.1933 43.812 85.1133 45.684C84.1053 47.556 83.6013 49.716 83.6013 52.164C83.6013 54.54 84.1053 56.664 85.1133 58.536C86.1213 60.408 87.5253 61.884 89.3253 62.964C91.1253 64.044 93.1413 64.584 95.3733 64.584ZM106.497 78.408V64.26L108.981 51.516L106.497 38.772V25.92H122.697V78.408H106.497ZM134.332 78.408V25.92H150.856V78.408H134.332ZM167.92 78.408V47.736C167.92 45.072 167.092 43.02 165.436 41.58C163.852 40.068 161.872 39.312 159.496 39.312C157.84 39.312 156.364 39.672 155.068 40.392C153.772 41.04 152.728 41.976 151.936 43.2C151.216 44.424 150.856 45.936 150.856 47.736L144.484 44.928C144.484 40.752 145.384 37.188 147.184 34.236C148.984 31.212 151.432 28.908 154.528 27.324C157.624 25.668 161.116 24.84 165.004 24.84C168.676 24.84 171.952 25.668 174.832 27.324C177.784 28.98 180.124 31.284 181.852 34.236C183.58 37.188 184.444 40.716 184.444 44.82V78.408H167.92ZM201.508 78.408V47.736C201.508 45.072 200.68 43.02 199.024 41.58C197.44 40.068 195.46 39.312 193.084 39.312C191.428 39.312 189.952 39.672 188.656 40.392C187.36 41.04 186.316 41.976 185.524 43.2C184.804 44.424 184.444 45.936 184.444 47.736L174.94 46.44C175.084 41.976 176.128 38.16 178.072 34.992C180.088 31.752 182.716 29.268 185.956 27.54C189.268 25.74 192.976 24.84 197.08 24.84C201.112 24.84 204.676 25.704 207.772 27.432C210.94 29.088 213.424 31.5 215.224 34.668C217.096 37.764 218.032 41.508 218.032 45.9V78.408H201.508ZM228.621 78.408V25.92H245.145V78.408H228.621ZM236.937 18.684C234.345 18.684 232.185 17.82 230.457 16.092C228.801 14.292 227.973 12.132 227.973 9.61196C227.973 7.01996 228.801 4.85996 230.457 3.13196C232.185 1.40396 234.345 0.539957 236.937 0.539957C239.529 0.539957 241.653 1.40396 243.309 3.13196C244.965 4.85996 245.793 7.01996 245.793 9.61196C245.793 12.132 244.965 14.292 243.309 16.092C241.653 17.82 239.529 18.684 236.937 18.684ZM256.781 78.408V-4.22001e-05H273.305V78.408H256.781Z" fill="white"/>
<path d="M295.309 79.596C292.501 79.596 290.161 78.624 288.289 76.68C286.417 74.736 285.481 72.396 285.481 69.66C285.481 66.78 286.417 64.404 288.289 62.532C290.161 60.588 292.501 59.616 295.309 59.616C298.189 59.616 300.529 60.588 302.329 62.532C304.201 64.404 305.137 66.78 305.137 69.66C305.137 72.396 304.201 74.736 302.329 76.68C300.529 78.624 298.189 79.596 295.309 79.596Z" fill="#00BA85"/>
</svg>
