<svg width="80" height="21" viewBox="0 0 80 21" fill="none" xmlns="http://www.w3.org/2000/svg">
<path d="M11.956 20.328L3.94799 10.024L11.704 0.559998H17.136L8.39999 10.836V9.044L17.416 20.328H11.956ZM-6.85453e-06 20.328V0.559998H4.39599V20.328H-6.85453e-06ZM23.8584 20.608C22.6077 20.608 21.4877 20.3 20.4984 19.684C19.5277 19.068 18.7531 18.228 18.1744 17.164C17.6144 16.1 17.3344 14.8867 17.3344 13.524C17.3344 12.1613 17.6144 10.948 18.1744 9.884C18.7531 8.82 19.5277 7.98 20.4984 7.364C21.4877 6.748 22.6077 6.44 23.8584 6.44C24.7731 6.44 25.5944 6.61733 26.3224 6.972C27.0691 7.32666 27.6757 7.82133 28.1424 8.456C28.6091 9.072 28.8704 9.78133 28.9264 10.584V16.464C28.8704 17.2667 28.6091 17.9853 28.1424 18.62C27.6944 19.236 27.0971 19.7213 26.3504 20.076C25.6037 20.4307 24.7731 20.608 23.8584 20.608ZM24.7264 16.744C25.6411 16.744 26.3784 16.4453 26.9384 15.848C27.4984 15.232 27.7784 14.4573 27.7784 13.524C27.7784 12.8893 27.6477 12.3293 27.3864 11.844C27.1437 11.3587 26.7891 10.9853 26.3224 10.724C25.8744 10.444 25.3517 10.304 24.7544 10.304C24.1571 10.304 23.6251 10.444 23.1584 10.724C22.7104 10.9853 22.3464 11.3587 22.0664 11.844C21.8051 12.3293 21.6744 12.8893 21.6744 13.524C21.6744 14.14 21.8051 14.6907 22.0664 15.176C22.3277 15.6613 22.6917 16.044 23.1584 16.324C23.6251 16.604 24.1477 16.744 24.7264 16.744ZM27.6104 20.328V16.66L28.2544 13.356L27.6104 10.052V6.72H31.8104V20.328H27.6104ZM34.8267 20.328V6.72H39.1107V20.328H34.8267ZM43.5347 20.328V12.376C43.5347 11.6853 43.3201 11.1533 42.8907 10.78C42.4801 10.388 41.9667 10.192 41.3507 10.192C40.9214 10.192 40.5387 10.2853 40.2027 10.472C39.8667 10.64 39.5961 10.8827 39.3907 11.2C39.2041 11.5173 39.1107 11.9093 39.1107 12.376L37.4587 11.648C37.4587 10.5653 37.6921 9.64133 38.1587 8.876C38.6254 8.092 39.2601 7.49466 40.0627 7.084C40.8654 6.65467 41.7707 6.44 42.7787 6.44C43.7307 6.44 44.5801 6.65467 45.3267 7.084C46.0921 7.51333 46.6987 8.11067 47.1467 8.876C47.5947 9.64133 47.8187 10.556 47.8187 11.62V20.328H43.5347ZM52.2427 20.328V12.376C52.2427 11.6853 52.0281 11.1533 51.5987 10.78C51.1881 10.388 50.6747 10.192 50.0587 10.192C49.6294 10.192 49.2467 10.2853 48.9107 10.472C48.5747 10.64 48.3041 10.8827 48.0987 11.2C47.9121 11.5173 47.8187 11.9093 47.8187 12.376L45.3547 12.04C45.3921 10.8827 45.6627 9.89333 46.1667 9.072C46.6894 8.232 47.3707 7.588 48.2107 7.14C49.0694 6.67333 50.0307 6.44 51.0947 6.44C52.1401 6.44 53.0641 6.664 53.8667 7.112C54.6881 7.54133 55.3321 8.16666 55.7987 8.988C56.2841 9.79067 56.5267 10.7613 56.5267 11.9V20.328H52.2427ZM59.2721 20.328V6.72H63.5561V20.328H59.2721ZM61.4281 4.844C60.7561 4.844 60.1961 4.62 59.7481 4.172C59.3187 3.70533 59.1041 3.14533 59.1041 2.492C59.1041 1.82 59.3187 1.26 59.7481 0.811998C60.1961 0.363999 60.7561 0.139999 61.4281 0.139999C62.1001 0.139999 62.6507 0.363999 63.0801 0.811998C63.5094 1.26 63.7241 1.82 63.7241 2.492C63.7241 3.14533 63.5094 3.70533 63.0801 4.172C62.6507 4.62 62.1001 4.844 61.4281 4.844ZM66.5728 20.328V-1.19209e-06H70.8568V20.328H66.5728Z" fill="#054431"/>
<path d="M76.5616 20.636C75.8336 20.636 75.227 20.384 74.7416 19.88C74.2563 19.376 74.0136 18.7693 74.0136 18.06C74.0136 17.3133 74.2563 16.6973 74.7416 16.212C75.227 15.708 75.8336 15.456 76.5616 15.456C77.3083 15.456 77.915 15.708 78.3816 16.212C78.867 16.6973 79.1096 17.3133 79.1096 18.06C79.1096 18.7693 78.867 19.376 78.3816 19.88C77.915 20.384 77.3083 20.636 76.5616 20.636Z" fill="#00BA85"/>
</svg>
